<svg width="24" height="24" fill="none" viewBox="0 0 24 24" xmlns="http://www.w3.org/2000/svg"><path d="M17.75 3A3.25 3.25 0 0 1 21 6.25v5.772a6.471 6.471 0 0 0-1.5-.709V10H4.5v7.75c0 .966.784 1.75 1.75 1.75h5.063c.173.534.412 1.038.709 1.5H6.25A3.25 3.25 0 0 1 3 17.75V6.25A3.25 3.25 0 0 1 6.25 3h11.5ZM6.25 4.5A1.75 1.75 0 0 0 4.5 6.25V8.5h15V6.25a1.75 1.75 0 0 0-1.75-1.75H6.25Z" fill="currentColor"/><path d="M23 17.5a5.5 5.5 0 1 0-11 0 5.5 5.5 0 0 0 11 0Zm-5 .5v2.5a.5.5 0 1 1-1 0V18h-2.5a.5.5 0 0 1 0-1H17v-2.5a.5.5 0 1 1 1 0V17h2.5a.5.5 0 0 1 0 1H18Z" fill="currentColor"/></svg>